# xmcd
#
# Track frame offsets: 
#        150
#        18180
#        35083
#        49328
#        63718
#        79583
#        96683
#        111916
#        125866
#        141949
#        157651
#        173819
#        187536
#        202356
#
# Disc length: 2925 seconds
#
# Revision: 3
# Processed by: cddbd v1.5.2PL0 Copyright (c) Steve Scherf et al.
# Submitted via: ExactAudioCopy v0.95b4
#
DISCID=ca0b6b0e
DTITLE=Various Artist - Hot Hits Country Vol. 67
DYEAR=1900
DGENRE=
TTITLE0=The Trouble With The Truth - Patty Loveless
TTITLE1=DCome Cryin To Me - Lonestar
TTITLE2=One Two I Love You - Clay Walker
TTITLE3=I Left Something Turned On At Home - Trace Adkins
TTITLE4=Lucky In Love - Sherrie Austin
TTITLE5=You Ain't Lonely Yet - Big House
TTITLE6=Don't Love Make A Diamond Shine - Tracy Byrd
TTITLE7=Drink Swear Steal and Lie - Michael Peterson
TTITLE8=I Broke It I'll Fix It - River Road
TTITLE9=Take From Me - Paul Brandt
TTITLE10=Find My Way Back To My Heart - Alison Krauss and Union Station
TTITLE11=Your Mama Won't Let Me - Little Texas
TTITLE12=Just The Same - Terri Clark
TTITLE13=Mary Go Round - Skip Ewing
EXTD=
EXTT0=
EXTT1=
EXTT2=
EXTT3=
EXTT4=
EXTT5=
EXTT6=
EXTT7=
EXTT8=
EXTT9=
EXTT10=
EXTT11=
EXTT12=
EXTT13=
PLAYORDER=
